<svg aria-hidden="true" style="position: absolute; width: 0; height: 0; overflow: hidden;" version="1.1" xmlns="http://www.w3.org/2000/svg" xmlns:xlink="http://www.w3.org/1999/xlink">
<defs>
<symbol id="icon-back-white-20" viewBox="0 0 32 32">
<path fill="#fff" style="fill: var(--color1, #fff)" d="M7.534 17.584l13.76 13.76c0.405 0.405 0.965 0.656 1.584 0.656 1.237 0 2.24-1.003 2.24-2.24 0-0.619-0.251-1.179-0.656-1.584v0l-12.174-12.176 12.176-12.174c0.405-0.405 0.656-0.965 0.656-1.584 0-1.238-1.003-2.241-2.241-2.241-0.619 0-1.179 0.251-1.585 0.657l-13.76 13.758c-0.407 0.405-0.659 0.965-0.659 1.584s0.252 1.179 0.659 1.584l0 0z"></path>
</symbol>
<symbol id="icon-close-white-20" viewBox="0 0 32 32">
<path fill="#fff" style="fill: var(--color1, #fff)" d="M14.49 16l-12.046-12.046 1.509-1.507 12.048 12.045 12.045-12.045 1.509 1.507-12.046 12.046 12.045 12.046-1.509 1.507-12.043-12.045-12.048 12.043-1.509-1.507 12.046-12.045z"></path>
</symbol>
<symbol id="icon-dislike-white-30" viewBox="0 0 32 32">
<path fill="#fff" style="fill: var(--color1, #fff)" d="M0 16c0-8.836 7.164-16 16-16s16 7.164 16 16c0 8.836-7.164 16-16 16s-16-7.164-16-16zM16 2.133c-7.659 0-13.867 6.208-13.867 13.867s6.208 13.867 13.867 13.867 13.867-6.208 13.867-13.867-6.208-13.867-13.867-13.867zM10.667 12.8h-2.133v-2.133h2.133v2.133zM23.467 12.8h-2.133v-2.133h2.133v2.133zM8.107 21.547l0.64-0.853c3.627-4.835 10.88-4.835 14.507 0l0.64 0.853-1.707 1.28-0.64-0.853c-2.773-3.698-8.32-3.698-11.093 0l-0.64 0.853-1.707-1.28z"></path>
</symbol>
<symbol id="icon-fav-full-white-20" viewBox="0 0 32 32">
<path fill="#fff" style="fill: var(--color1, #fff)" d="M8.608 1.6c-0 0-0.001 0-0.001 0-4.754 0-8.608 3.854-8.608 8.608 0 2.378 0.964 4.53 2.522 6.088l12.725 12.725c0.416 0.416 1.091 0.416 1.507 0l12.725-12.725c1.558-1.558 2.521-3.71 2.521-6.087 0-4.755-3.854-8.609-8.609-8.609-2.378 0-4.53 0.964-6.088 2.522v0l-1.302 1.304-1.304-1.304c-1.558-1.558-3.709-2.521-6.086-2.522h-0z"></path>
</symbol>
<symbol id="icon-fav-full-white-30" viewBox="0 0 34 32">
<path fill="#fff" style="fill: var(--color1, #fff)" d="M10.73 1.778c-3.962 0-7.174 3.212-7.174 7.174 0 1.981 0.803 3.775 2.101 5.073l10.604 10.604c0.161 0.161 0.383 0.26 0.628 0.26s0.468-0.099 0.628-0.26l10.604-10.604c1.298-1.298 2.101-3.092 2.101-5.073 0-3.962-3.212-7.174-7.174-7.174-1.981 0-3.775 0.803-5.073 2.101v0l-1.086 1.086-1.086-1.086c-1.298-1.298-3.092-2.101-5.073-2.101v0z"></path>
</symbol>
<symbol id="icon-fav-white-20" viewBox="0 0 32 32">
<path fill="#fff" style="fill: var(--color1, #fff)" d="M8.608 3.733c-0 0-0.001 0-0.001 0-3.576 0-6.475 2.899-6.475 6.475 0 1.789 0.726 3.409 1.899 4.581l11.97 11.968 11.97-11.968c1.128-1.164 1.824-2.754 1.824-4.506 0-3.577-2.9-6.477-6.477-6.477-1.752 0-3.341 0.696-4.507 1.826l0.002-0.002-2.058 2.058c-0.193 0.192-0.459 0.312-0.754 0.312s-0.561-0.119-0.754-0.312l-2.058-2.058c-1.172-1.172-2.791-1.898-4.58-1.898-0 0-0.001 0-0.001 0h0zM0 10.21c0-0.001 0-0.002 0-0.002 0-4.754 3.854-8.608 8.608-8.608 2.378 0 4.53 0.964 6.088 2.522l1.304 1.304 1.304-1.304c1.558-1.558 3.71-2.521 6.087-2.521 4.755 0 8.609 3.854 8.609 8.609 0 2.378-0.964 4.53-2.522 6.088l-12.725 12.723c-0.193 0.192-0.459 0.312-0.754 0.312s-0.561-0.119-0.754-0.312l-12.725-12.725c-1.558-1.558-2.521-3.709-2.522-6.086v-0z"></path>
</symbol>
<symbol id="icon-fav-white-30" viewBox="0 0 32 32">
<path fill="#fff" style="fill: var(--color1, #fff)" d="M8.609 4.267c-0 0-0 0-0 0-3.576 0-6.476 2.899-6.476 6.476 0 1.788 0.725 3.407 1.897 4.579l11.97 11.97 11.97-11.97c1.172-1.172 1.897-2.791 1.897-4.579 0-3.577-2.899-6.476-6.476-6.476-1.788 0-3.407 0.725-4.579 1.897l-2.058 2.059c-0.193 0.193-0.46 0.312-0.754 0.312s-0.561-0.119-0.754-0.312l-2.058-2.059c-1.172-1.172-2.791-1.897-4.579-1.897-0 0-0 0-0 0h0zM0 10.742c0-4.755 3.854-8.609 8.609-8.609 2.377 0 4.53 0.964 6.087 2.521l1.303 1.303 1.303-1.303c1.555-1.541 3.696-2.494 6.060-2.494 4.755 0 8.609 3.854 8.609 8.609 0 2.364-0.953 4.505-2.495 6.060l-12.724 12.725c-0.193 0.193-0.46 0.312-0.754 0.312s-0.561-0.119-0.754-0.312l-12.724-12.726c-1.558-1.558-2.521-3.709-2.522-6.086v-0z"></path>
</symbol>
<symbol id="icon-like-white-30" viewBox="0 0 32 32">
<path fill="#fff" style="fill: var(--color1, #fff)" d="M0 16c0-8.836 7.164-16 16-16s16 7.164 16 16c0 8.836-7.164 16-16 16s-16-7.164-16-16zM16 2.133c-7.659 0-13.867 6.208-13.867 13.867s6.208 13.867 13.867 13.867 13.867-6.208 13.867-13.867-6.208-13.867-13.867-13.867zM10.667 12.8h-2.133v-2.133h2.133v2.133zM23.467 12.8h-2.133v-2.133h2.133v2.133zM9.813 17.707l0.64 0.853c2.773 3.698 8.32 3.698 11.093 0l0.64-0.853 1.707 1.28-0.64 0.853c-3.627 4.835-10.88 4.835-14.507 0l-0.64-0.853 1.707-1.28z"></path>
</symbol>
<symbol id="icon-search-white-20" viewBox="0 0 32 32">
<path fill="#fff" style="fill: var(--color1, #fff)" d="M30.978 29.147l-7.616-7.92c1.886-2.226 3.032-5.13 3.032-8.301 0-0.002 0-0.004 0-0.006v0c0-7.123-5.797-12.92-12.922-12.92-7.123 0-12.918 5.797-12.918 12.92 0 7.125 5.795 12.92 12.92 12.92 0.010 0 0.021 0 0.032 0 2.761 0 5.318-0.876 7.408-2.364l-0.039 0.026 7.674 7.981c0.32 0.333 0.752 0.517 1.216 0.517 0.931-0.001 1.684-0.756 1.684-1.686 0-0.453-0.178-0.864-0.469-1.167l0.001 0.001zM13.474 3.371c5.271 0.006 9.542 4.278 9.549 9.548v0.001c-0.005 5.272-4.277 9.544-9.548 9.55h-0.001c-5.272-0.005-9.545-4.278-9.55-9.55v-0.001c0.006-5.272 4.279-9.543 9.55-9.549h0.001z"></path>
</symbol>
<symbol id="icon-update-white-20" viewBox="0 0 32 32">
<path fill="#fff" style="fill: var(--color1, #fff)" d="M15.171 4l-2.477-2.475 1.523-1.525 5.075 5.072-5.075 5.070-1.523-1.525 2.461-2.461c-6.347 0.251-11.397 5.455-11.4 11.84v0c0.004 6.544 5.31 11.848 11.854 11.848 0.001 0 0.001 0 0.002 0h-0c0 0 0.001 0 0.002 0 6.545 0 11.851-5.304 11.854-11.848v-1.079h2.157v1.078c0 7.733-6.275 14.003-14.013 14.003-7.736 0-14.011-6.27-14.011-14.003 0-7.586 6.038-13.765 13.571-13.997z"></path>
</symbol>
<symbol id="icon-upload-white-16" viewBox="0 0 32 32">
<path fill="#fff" style="fill: var(--color1, #fff)" d="M15.732 0l8.74 8.066-1.646 1.784-5.848-5.4v20.274h-2.426v-20.114l-5.206 5.206-1.714-1.716 8.1-8.1zM2.426 29.574v-14.552h-2.426v16.978h31.532v-16.98h-2.426v14.554h-26.68z"></path>
</symbol>
</defs>
</svg>
